PathFileType	4	(X/Y/Z)	TVC_20_BWA5_walk_RCNL2025.trc
DataRate	CameraRate	NumFrames	NumMarkers	Units	OrigDataRate	OrigDataStartFrame	OrigNumFrames
100	100	11	27	mm	100	166	220
Frame#	Time	R_Shoulder			L_Shoulder			C7			J_Notch			R_Elbow			L_Elbow			R_Wrist			L_Wrist			R_Asis			L_Asis			R_Psis			L_Psis			Sacral			Thoracic			Sternum			R_Thigh_Lateral			R_Knee_Lateral			R_Shank_Lateral			R_Ankle_Lateral			R_Heel			R_Toe			L_Thigh_Lateral			L_Knee_Lateral			L_Shank_Lateral			L_Ankle_Lateral			L_Heel			L_Toe		
		X1	Y1	Z1	X2	Y2	Z2	X3	Y3	Z3	X4	Y4	Z4	X5	Y5	Z5	X6	Y6	Z6	X7	Y7	Z7	X8	Y8	Z8	X9	Y9	Z9	X10	Y10	Z10	X11	Y11	Z11	X12	Y12	Z12	X13	Y13	Z13	X14	Y14	Z14	X15	Y15	Z15	X16	Y16	Z16	X17	Y17	Z17	X18	Y18	Z18	X19	Y19	Z19	X20	Y20	Z20	X21	Y21	Z21	X22	Y22	Z22	X23	Y23	Z23	X24	Y24	Z24	X25	Y25	Z25	X26	Y26	Z26	X27	Y27	Z27
166	1.65000000	176.265030	1379.750488	340.062073	122.221588	1376.765747	-24.183270	123.319763	1434.780640	170.151352	236.112473	1296.807373	159.567139	144.563431	1078.889893	465.255432	3.591033	1079.936523	-94.565903	328.241760	898.692261	420.481476	79.831667	829.042358	-108.636868	164.793106	977.623779	324.482849	184.634995	986.233093	45.218777	18.048077	979.299438	220.899719	11.860857	968.660461	130.525925	14.954467	973.979950	175.712822	-2.924340	1214.507690	174.628036	240.685501	1154.184814	162.876038	95.293114	647.797668	384.972198	54.016548	445.927979	312.653168	-92.854202	331.656525	363.247101	-256.534882	173.551575	283.139008	-303.496246	194.837601	236.931381	-190.747696	44.396904	252.549835	250.483185	644.535583	-24.850952	324.314178	497.951263	52.318264	321.441772	311.266541	2.266916	306.614014	72.248108	83.485680	259.323853	61.904350	126.856178	445.493927	38.845009	106.582260
167	1.66000000	190.039200	1382.371216	338.651062	136.903305	1378.785034	-25.821606	137.360687	1437.250977	168.470612	250.205948	1299.418213	158.219696	155.579544	1081.559937	463.672821	21.851799	1080.592773	-96.665291	337.713547	899.020325	421.548599	102.249653	831.011688	-110.189358	179.121582	979.506470	322.988342	198.377426	989.113098	43.814972	32.230812	981.447632	220.082642	25.807791	971.480774	129.719238	29.019301	976.464203	174.900940	11.295049	1216.839111	173.280930	255.003738	1156.789429	161.661194	118.258148	646.929016	383.835724	80.403008	444.816956	312.317780	-69.016815	334.118317	362.376923	-239.457367	184.300400	282.200043	-285.309265	208.124207	235.706604	-181.044785	50.764893	252.741730	258.739868	644.509277	-25.585995	332.206329	497.883209	51.808414	326.255096	310.877441	2.082811	306.947113	72.529228	83.673386	259.438995	62.081841	126.784554	445.917999	38.947590	107.097275
168	1.67000000	203.669373	1385.089844	337.359436	151.430542	1381.044189	-27.318342	151.305664	1439.866211	166.932266	264.174408	1302.040894	157.007767	166.543259	1084.375854	462.250427	39.996571	1081.529175	-98.775513	347.017624	899.499695	422.614929	124.935806	833.479828	-111.747635	193.145859	981.449280	321.606903	211.965302	992.004639	42.477673	46.247517	983.760132	219.223846	39.578648	974.436096	128.866959	42.913082	979.098114	174.045403	25.395817	1219.328857	171.969162	269.141754	1159.514404	160.540619	141.044739	646.280518	382.676208	107.408409	444.108124	311.819183	-44.026134	336.665924	361.310852	-220.693314	194.797531	280.967407	-265.689819	220.614700	234.177460	-168.307648	58.199841	253.030945	265.624817	644.028992	-26.307940	339.004730	497.627411	51.171066	329.586426	310.359039	1.713252	307.095001	72.713387	83.824699	259.469086	62.161343	126.754364	446.170502	39.117535	107.411804
169	1.68000000	217.146408	1387.865967	336.191498	165.802139	1383.506470	-28.674486	165.147598	1442.587036	165.539536	277.993286	1304.641846	155.947525	177.462341	1087.297729	460.991272	57.997005	1082.724243	-100.899055	356.182938	900.114075	423.673599	147.808899	836.427307	-113.301601	206.896286	983.440247	320.327850	225.407608	994.871338	41.203289	60.100502	986.210083	218.319565	53.180679	977.492249	127.968704	56.640591	981.851166	173.144135	39.374298	1221.937012	170.687790	283.102966	1162.326294	159.518356	163.301361	646.128845	381.550781	134.818741	443.912415	311.202087	-18.176146	339.414795	360.099335	-200.242874	204.672409	279.481995	-244.681854	231.876648	232.379944	-152.284134	66.234009	253.323700	271.808777	643.514160	-27.090431	344.809479	497.232422	50.406281	331.695709	309.819824	1.107223	307.092560	72.794670	83.919701	259.431061	62.178173	126.737083	446.281647	39.265793	107.529030
170	1.69000000	230.467712	1390.660400	335.147675	180.021088	1386.134155	-29.894102	178.882904	1445.374268	164.292297	291.641754	1307.222168	155.056046	188.341064	1090.286377	459.893280	75.836273	1084.151001	-103.037148	365.236176	900.844574	424.720566	170.794708	839.827118	-114.842030	220.419220	985.480225	319.125366	238.711014	997.686462	39.978390	73.795990	988.769409	217.370514	66.624008	980.615295	127.029175	70.209999	984.692352	172.199844	53.229809	1224.623169	169.432663	296.895203	1165.193359	158.591980	184.808426	646.697327	380.510529	162.437714	444.319092	310.516693	8.251492	342.451691	358.801392	-178.125061	213.553299	277.784088	-222.321426	241.520950	230.352921	-132.879089	74.314819	253.510971	277.899811	643.311829	-28.002417	349.739166	496.748810	49.527020	332.895294	309.337128	0.257389	306.976837	72.780350	83.945480	259.341095	62.164452	126.705811	446.282043	39.349083	107.465591
171	1.70000000	243.636780	1393.434570	334.224945	194.093628	1388.888794	-30.983866	192.511047	1448.188599	163.187225	305.152100	1309.802124	154.334000	199.180710	1093.303101	458.949982	93.507614	1085.777832	-105.189140	374.201706	901.669769	425.754578	193.828468	843.646057	-116.360497	233.770050	987.578674	317.963165	251.880234	1000.429626	38.782566	87.343277	991.408203	216.381134	79.921143	983.771118	126.056564	83.632210	987.589661	171.218849	66.964241	1227.347168	168.200455	310.529938	1168.084473	157.752853	205.506012	648.089600	379.571899	190.094025	445.385254	309.809753	35.023289	345.795105	357.474426	-154.383179	221.098755	275.913116	-198.645248	249.229584	228.139435	-110.151382	81.889450	253.493118	284.299530	643.610962	-29.083990	353.921478	496.222015	48.559155	333.511993	308.952118	-0.797576	306.783875	72.686630	83.899345	259.214111	62.145927	126.640427	446.200195	39.356335	107.249092
172	1.71000000	256.662415	1396.151001	333.417023	208.028320	1391.731201	-31.952576	206.034180	1450.990967	162.218246	318.565186	1312.403198	153.777054	209.980408	1096.310303	458.151184	111.012611	1087.568726	-107.352287	383.101639	902.565857	426.776672	216.856590	847.845764	-117.849415	247.006149	989.747681	316.800568	264.918579	1003.083984	37.592171	100.753929	994.093994	215.358856	93.086243	986.924805	125.061340	96.920086	990.509399	170.210098	80.581650	1230.069458	166.988739	324.021332	1170.968384	156.986725	225.475616	650.261047	378.709137	217.645004	447.129700	309.116974	61.976059	349.369049	356.163239	-129.086349	227.025131	273.907990	-173.695587	254.773697	225.785400	-84.289124	88.475891	253.198929	291.130768	644.419312	-30.327696	357.485596	495.688324	47.539577	333.849091	308.675812	-1.982174	306.546478	72.535416	83.789345	259.063690	62.140675	126.531143	446.061768	39.295345	106.915070
173	1.72000000	269.557770	1398.772949	332.715179	221.835159	1394.621582	-32.810665	219.456573	1453.742554	161.376816	331.895142	1315.038940	153.381683	220.738022	1099.270630	457.483795	128.359283	1089.483887	-109.521988	391.956085	903.506653	427.789749	239.837547	852.383636	-119.301868	260.180542	991.994934	315.598816	277.828979	1005.633057	36.384144	114.040985	996.791199	214.313293	106.134277	990.040100	124.055367	110.087631	993.415649	169.184330	94.087784	1232.750732	165.796066	337.385132	1173.814087	156.274918	244.887329	653.047424	377.874359	244.976883	449.531677	308.459106	89.021698	353.004059	354.891357	-102.325615	231.126144	271.806885	-147.520203	258.021057	223.337753	-55.571167	93.708672	252.595963	298.253784	645.597046	-31.674505	360.555847	495.173157	46.512306	334.149811	308.500031	-3.201500	306.292999	72.352356	83.632393	258.902405	62.159550	126.379845	445.890167	39.182842	106.503922
174	1.73000000	282.339081	1401.265015	332.108704	235.524902	1397.519165	-33.569695	232.784134	1456.405151	160.652451	345.153229	1317.730591	153.109970	231.450974	1102.147461	456.932617	145.560410	1091.479858	-111.692268	400.783615	904.463837	428.797913	262.741768	857.213623	-120.711376	273.337219	994.318420	314.326721	290.615143	1008.059143	35.139328	127.218246	999.460999	213.255524	119.080093	993.079590	123.051277	123.149170	996.270294	168.153400	107.489616	1235.353027	164.622070	350.637817	1176.589233	155.595749	263.939331	656.229736	377.028290	272.002106	452.534851	307.840607	116.135284	356.467529	353.660675	-74.206108	233.282593	269.646851	-120.169128	258.933563	220.843033	-24.323917	97.358673	251.691315	305.364594	646.927368	-33.029205	363.247375	494.691406	45.523144	334.568207	308.408722	-4.361385	306.046906	72.164978	83.450592	258.741821	62.207798	126.198692	445.707245	39.038979	106.057129
175	1.74000000	295.024750	1403.592407	331.585785	249.108368	1400.382446	-34.241848	246.023865	1458.941406	160.033127	358.349579	1320.475464	152.895599	242.117172	1104.904785	456.481171	162.632172	1093.511108	-113.856522	409.601273	905.407196	429.805756	285.550873	862.286652	-122.071644	286.508118	996.701782	312.964630	303.282410	1010.342163	33.845078	140.299744	1002.061401	212.197540	131.937653	996.004639	122.061996	136.118698	999.033020	167.129768	120.794983	1237.839111	163.467651	363.795654	1179.260132	154.926346	282.808563	659.598999	376.159027	298.654724	456.054291	307.251740	143.333359	359.509094	352.457825	-44.837830	233.462555	267.462616	-91.690788	257.557770	218.345978	9.118704	99.332207	250.523788	312.138184	648.195007	-34.291267	365.663055	494.248627	44.613686	335.156006	308.387177	-5.385932	305.826385	72.000038	83.267303	258.593262	62.287132	126.006981	445.533539	38.884781	105.613457
176	1.75000000	307.634155	1405.722412	331.134094	262.596161	1403.168823	-34.839436	259.183411	1461.314941	159.505814	371.503326	1323.186401	152.661575	252.735733	1107.507202	456.112274	179.593124	1095.530151	-116.008293	418.425003	906.305054	430.817749	308.256134	867.551178	-123.376354	299.712402	999.112976	311.506714	315.838104	1012.459290	32.496719	153.299316	1004.548401	211.151749	144.719452	998.775940	121.100388	149.009384	1001.662170	166.126068	134.012192	1240.173706	162.335129	376.873810	1181.792114	154.244537	301.625854	663.000549	375.279816	324.885071	459.985229	306.671936	170.652863	361.902557	351.264099	-14.326561	231.713638	265.286377	-62.128922	254.010101	215.888733	44.445324	99.656433	249.150833	318.355438	649.245361	-35.385204	367.891785	493.842987	43.815769	335.873718	308.426056	-6.229702	305.643402	71.880356	83.104057	258.467560	62.397469	125.827225	445.387054	38.740189	105.205566
